<svg xmlns="http://www.w3.org/2000/svg" viewBox="0 0 300 300" version="1.0">
    <g transform="translate(-165,-65.5) scale(1.5)">
        <g transform="scale(2) translate(70,20)">
            <line id="r" stroke="black" stroke-width="1" x1="-10" y1="20" x2="21" y2="20"/>
            <path transform="translate(-1,-1)" fill="none" stroke="black" id="figure" stroke-linecap="square" d="M 20 15 v 0.1 c 2.2 3.8 3.5 8.2 3.5 12.9 c 0 4.7 -1.3 9.1 -3.5 12.9 v 0.1 h 13.5 c 9.6 0 18 -5.2 22.5 -13 c -4.5 -7.8 -12.9 -13 -22.5 -13 h -13.5 z m 40 13 c 0 1.1 -0.9 2 -2 2 s -2 -0.9 -2 -2 s 0.9 -2 2 -2 s 2 0.9 2 2 z"/>
            <line id="nor1-s" stroke="black" stroke-width="1" x1="59.5" y1="27" x2="80" y2="27"/>
            <path id="nor1-s1" fill="none" stroke="black" stroke-width="1" d="M 63,27 L 63,43 L 10,58 L 10,70 L 21,70"/>
            <circle id="nor1-s-dot" cx="63" cy="27" r="1.5" fill="black" stroke="none"/>
        </g>

        <g transform="scale(2) translate(70,70)">
            <line id="s" stroke="black" stroke-width="1" x1="-10" y1="34" x2="21" y2="34"/>
            <path transform="translate(-1,-1)" fill="none" stroke="black" id="figure" stroke-linecap="square" d="M 20 15 v 0.1 c 2.2 3.8 3.5 8.2 3.5 12.9 c 0 4.7 -1.3 9.1 -3.5 12.9 v 0.1 h 13.5 c 9.6 0 18 -5.2 22.5 -13 c -4.5 -7.8 -12.9 -13 -22.5 -13 h -13.5 z m 40 13 c 0 1.1 -0.9 2 -2 2 s -2 -0.9 -2 -2 s 0.9 -2 2 -2 s 2 0.9 2 2 z"/>
            <line id="nor2-s" stroke="black" stroke-width="1" x1="59.5" y1="27" x2="80" y2="27"/>
            <path id="nor2-s1" fill="none" stroke="black" stroke-width="1" d="M 63,27 L 63,10 L 10,-5 L 10,-16 L 21,-16"/>
            <circle id="nor2-s-dot" cx="63" cy="27" r="1.5" fill="black" stroke="none"/>
        </g>
    </g>
</svg>