<svg xmlns="http://www.w3.org/2000/svg" viewBox="0 0 300 300" version="1.0">
    <g transform="translate(-165,-65.5) scale(1.5)">
        <g transform="scale(2) translate(70,20)">
            <line id="s" stroke="black" stroke-width="1" x1="-10" y1="20" x2="21" y2="20"/>
            <path fill="none" stroke="black" stroke-linecap="square"
                  d="M 40 40 h -19 v -26 l 19 0 c 7.2 0 13 5.8 13 13 s -5.8 13 -13 13 z m 17 -13 c 0 1.1 -0.9 2 -2 2 s -2 -0.9 -2 -2 s 0.9 -2 2 -2 s 2 0.9 2 2 z"/>
            <line id="nand1-s" stroke="black" stroke-width="1" x1="57.5" y1="27" x2="80" y2="27"/>
            <path id="nand1-s1" fill="none" stroke="black" stroke-width="1" d="M 63,27 L 63,43 L 10,58 L 10,70 L 21,70"/>
            <circle id="nand1-s-dot" cx="63" cy="27" r="1.5" fill="black" stroke="none"/>
        </g>

        <g transform="scale(2) translate(70,70)">
            <line id="r" stroke="black" stroke-width="1" x1="-10" y1="34" x2="21" y2="34"/>
            <path fill="none" stroke="black" stroke-linecap="square"
                  d="M 40 40 h -19 v -26 l 19 0 c 7.2 0 13 5.8 13 13 s -5.8 13 -13 13 z m 17 -13 c 0 1.1 -0.9 2 -2 2 s -2 -0.9 -2 -2 s 0.9 -2 2 -2 s 2 0.9 2 2 z"/>
            <line id="nand2-s" stroke="black" stroke-width="1" x1="57.5" y1="27" x2="80" y2="27"/>
            <path id="nand2-s1" fill="none" stroke="black" stroke-width="1" d="M 63,27 L 63,10 L 10,-5 L 10,-16 L 21,-16"/>
            <circle id="nand2-s-dot" cx="63" cy="27" r="1.5" fill="black" stroke="none"/>
        </g>
    </g>
</svg>