<svg viewBox="0 0 50 30" xmlns="http://www.w3.org/2000/svg">
    <style>
        #gA {
        stroke: black;
        stroke-width: 1;
        }

        #gB {
        stroke: black;
        stroke-width: 1;
        }

        #gC {
        stroke: black;
        stroke-width: 1;
        }

        #figure {
        fill:white;
        stroke:black;
        }
    </style>

    <g transform="translate(-14, -12)">
        <line id="gC" x1="50" y1="28" x2="65" y2="28" />
        <line id="gA" x1="12" y1="20" x2="25" y2="20" />
        <line id="gB" x1="12" y1="35" x2="25" y2="35" />
        <path id="figure" stroke-linecap="square" d="M 20 15 v 0.1 c 2.2 3.8 3.5 8.2 3.5 12.9 c 0 4.7 -1.3 9.1 -3.5 12.9 v 0.1 h 13.5 c 9.6 0 18 -5.2 22.5 -13 c -4.5 -7.8 -12.9 -13 -22.5 -13 h -13.5 z m 40 13 c 0 1.1 -0.9 2 -2 2 s -2 -0.9 -2 -2 s 0.9 -2 2 -2 s 2 0.9 2 2 z"/>
    </g>
</svg>