<svg xmlns="http://www.w3.org/2000/svg" viewBox="0 0 300 300" version="1.0">
    <style>
        #and {
        fill:none;
        stroke:black;
        stroke-width:1;
        }

        #or {
        fill:none;
        stroke:black;
        stroke-width:1;
        }

        #xor {
        fill:none;
        stroke:black;
        stroke-width:1;
        }
    </style>

    <g transform="translate(-8,100)">
        <g id="or" transform="translate(30, -60)">
            <path id="or1-a" d="M 30,15 L -15,15"/>
            <path id="or1-b" d="M 30,35 L 15,35 L 15,115"/>
            <path id="or1-s" d="M 70,25.5 L 95,25.5 L 95,50 L 120,50"/>
            <path transform="translate(26.600,-38.862)" style="stroke-width:0;fill:#000;stroke:none"
                  d="M -2.406,44.5 L -0.406,46.937 C -0.406,46.937 5.25,53.937 5.25,64.5 C 5.25,75.062 -0.406,82.062 -0.406,82.062 L -2.406,84.5 L 0.75,84.5 L 14.75,84.5 C 17.158,84.500 22.439,84.524 28.375,82.09375 C 34.310301,79.662986 40.911536,74.750484 46.0625,65.21875 L 44.75,64.5 L 46.0625,63.78125 C 35.759387,44.71559 19.506574,44.5 14.75,44.5 L 0.75,44.5 L -2.40625,44.5 z M 3.46875,47.5 L 14.75,47.5 C 19.434173,47.5 33.03685,47.369793 42.71875,64.5 C 37.951964,72.929075 32.197469,77.18391 27,79.3125 C 21.639339,81.507924 17.158075,81.500001 14.75,81.5 L 3.5,81.5 C 5.3735884,78.391566 8.25,72.45065 8.25,64.5 C 8.25,56.526646 5.3414686,50.599815 3.46875,47.5 z"/>
        </g>

        <g id="or" transform="translate(220, -50)">
            <path id="or2-s" d="M 70,25.5 L 80,25.5"/>
            <path transform="translate(26.600,-38.862)" style="stroke-width:0;fill:#000;stroke:none"
                  d="M -2.406,44.5 L -0.406,46.937 C -0.406,46.937 5.25,53.937 5.25,64.5 C 5.25,75.062 -0.406,82.062 -0.406,82.062 L -2.406,84.5 L 0.75,84.5 L 14.75,84.5 C 17.158,84.500 22.439,84.524 28.375,82.09375 C 34.310301,79.662986 40.911536,74.750484 46.0625,65.21875 L 44.75,64.5 L 46.0625,63.78125 C 35.759387,44.71559 19.506574,44.5 14.75,44.5 L 0.75,44.5 L -2.40625,44.5 z M 3.46875,47.5 L 14.75,47.5 C 19.434173,47.5 33.03685,47.369793 42.71875,64.5 C 37.951964,72.929075 32.197469,77.18391 27,79.3125 C 21.639339,81.507924 17.158075,81.500001 14.75,81.5 L 3.5,81.5 C 5.3735884,78.391566 8.25,72.45065 8.25,64.5 C 8.25,56.526646 5.3414686,50.599815 3.46875,47.5 z"/>
        </g>

        <g id="and" transform="translate(30, 20)">
            <path id="and1-a" d="M 30,15 L 0,15"/>
            <circle id="and1-dot" cx="0" cy="15" r="2" fill="black"/>
            <path id="and1-b" d="M 30,35 L -15,35"/>
            <path id="and1-s" d="M 70,25 L 200,25 L 200,-35 L 220,-35"/>
            <path style="stroke-width:0;fill:#000;stroke:none"
                  d="M 30,5 L 30,6.428 L 30,43.571 L 30,45 L 31.428,45 L 50.476,45 C 61.744,45 70.47,36.0 70.47619,25 C 70.47619,14.000045 61.744099,5.0000002 50.47619,5 C 50.47619,5 50.47619,5 31.428571,5 L 30,5 z M 32.857143,7.8571429 C 40.834264,7.8571429 45.918368,7.8571429 48.095238,7.8571429 C 49.285714,7.8571429 49.880952,7.8571429 50.178571,7.8571429 C 50.327381,7.8571429 50.409227,7.8571429 50.446429,7.8571429 C 50.465029,7.8571429 50.471543,7.8571429 50.47619,7.8571429 C 60.236853,7.857143 67.142857,15.497098 67.142857,25 C 67.142857,34.502902 59.760662,42.142857 50,42.142857 L 32.857143,42.142857 L 32.857143,7.8571429 z"/>
        </g>

        <g id="and" transform="translate(120, -25)">
            <path id="and2-b" d="M 30,35 L 15,35 L 15,180 L -105,180"/>
            <path id="and2-s" d="M 70,25 L 90,25 L 90,-10 L 130,-10"/>
            <path style="stroke-width:0;fill:#000;stroke:none"
                  d="M 30,5 L 30,6.428 L 30,43.571 L 30,45 L 31.428,45 L 50.476,45 C 61.744,45 70.47,36.0 70.47619,25 C 70.47619,14.000045 61.744099,5.0000002 50.47619,5 C 50.47619,5 50.47619,5 31.428571,5 L 30,5 z M 32.857143,7.8571429 C 40.834264,7.8571429 45.918368,7.8571429 48.095238,7.8571429 C 49.285714,7.8571429 49.880952,7.8571429 50.178571,7.8571429 C 50.327381,7.8571429 50.409227,7.8571429 50.446429,7.8571429 C 50.465029,7.8571429 50.471543,7.8571429 50.47619,7.8571429 C 60.236853,7.857143 67.142857,15.497098 67.142857,25 C 67.142857,34.502902 59.760662,42.142857 50,42.142857 L 32.857143,42.142857 L 32.857143,7.8571429 z"/>
        </g>

        <g id="xor" transform="translate(30, 90)">
            <path id="xor1-a" d="M 30,15 L 0,15 L 0,-135"/>
            <circle id="xor1-dot" cx="0" cy="-135" r="2" fill="black"/>
            <path id="xor1-b" d="M 30,35 L 15,35 L 15,-35"/>
            <circle id="xor1-dot2" cx="15" cy="-35" r="2" fill="black"/>
            <path id="xor1-s" d="M 70,25.5 L 220,25.5"/>
            <g transform="translate(26.600,-38.862)" style="stroke-width:0;fill:#000;stroke:none">
                <path d="M -2.25,81.500 C -3.847,84.144 -4.5,84.500 -4.5,84.500 L -8.156,84.500 L -6.156,82.062 C -6.15625,82.062505 -0.5,75.062451 -0.5,64.5 C -0.5,53.937 -6.156,46.937 -6.156,46.937 L -8.156,44.5 L -4.5,44.5 C -3.71875,45.4375 -3.078125,46.15625 -2.28125,47.5 C -0.408531,50.599815 2.5,56.526646 2.5,64.5 C 2.5,72.45065 -0.396697,78.379425 -2.25,81.500005 z"/>
                <path d="M -2.406,44.5 L -0.406,46.937 C -0.406,46.937 5.25,53.937 5.25,64.5 C 5.25,75.062 -0.406,82.062 -0.406,82.062 L -2.406,84.5 L 0.75,84.5 L 14.75,84.5 C 17.158,84.500 22.439,84.524 28.375,82.09375 C 34.310301,79.662986 40.911536,74.750484 46.0625,65.21875 L 44.75,64.5 L 46.0625,63.78125 C 35.759387,44.71559 19.506574,44.5 14.75,44.5 L 0.75,44.5 L -2.40625,44.5 z M 3.46875,47.5 L 14.75,47.5 C 19.434173,47.5 33.03685,47.369793 42.71875,64.5 C 37.951964,72.929075 32.197469,77.18391 27,79.3125 C 21.639339,81.507924 17.158075,81.500001 14.75,81.5 L 3.5,81.5 C 5.3735884,78.391566 8.25,72.45065 8.25,64.5 C 8.25,56.526646 5.3414686,50.599815 3.46875,47.5 z"/>
            </g>
        </g>

        <g id="xor" transform="translate(220, 100)">
            <path id="xor2-b" d="M 30,35 L 15,35 L -85,35"/>
            <circle id="xor2-dot" cx="-85" cy="35" r="2" fill="black"/>
            <path id="xor2-s" d="M 70,25.5 L 80,25.5"/>
            <g transform="translate(26.600,-38.862)" style="stroke-width:0;fill:#000;stroke:none">
                <path d="M -2.25,81.500 C -3.847,84.144 -4.5,84.500 -4.5,84.500 L -8.156,84.500 L -6.156,82.062 C -6.15625,82.062505 -0.5,75.062451 -0.5,64.5 C -0.5,53.937 -6.156,46.937 -6.156,46.937 L -8.156,44.5 L -4.5,44.5 C -3.71875,45.4375 -3.078125,46.15625 -2.28125,47.5 C -0.408531,50.599815 2.5,56.526646 2.5,64.5 C 2.5,72.45065 -0.396697,78.379425 -2.25,81.500005 z"/>
                <path d="M -2.406,44.5 L -0.406,46.937 C -0.406,46.937 5.25,53.937 5.25,64.5 C 5.25,75.062 -0.406,82.062 -0.406,82.062 L -2.406,84.5 L 0.75,84.5 L 14.75,84.5 C 17.158,84.500 22.439,84.524 28.375,82.09375 C 34.310301,79.662986 40.911536,74.750484 46.0625,65.21875 L 44.75,64.5 L 46.0625,63.78125 C 35.759387,44.71559 19.506574,44.5 14.75,44.5 L 0.75,44.5 L -2.40625,44.5 z M 3.46875,47.5 L 14.75,47.5 C 19.434173,47.5 33.03685,47.369793 42.71875,64.5 C 37.951964,72.929075 32.197469,77.18391 27,79.3125 C 21.639339,81.507924 17.158075,81.500001 14.75,81.5 L 3.5,81.5 C 5.3735884,78.391566 8.25,72.45065 8.25,64.5 C 8.25,56.526646 5.3414686,50.599815 3.46875,47.5 z"/>
            </g>
        </g>
    </g>
</svg>