<svg xmlns="http://www.w3.org/2000/svg" viewBox="0 0 100 160" version="1.1"
     xmlns:xlink="http://www.w3.org/1999/xlink" transform="matrix(1,0,0,-1,0,0)">
    <g transform="translate(10,0)">
        <line id="b1" stroke="black" x1="-10" y1="20" x2="21" y2="20"/>
        <path id="b2-2" fill="none" stroke="black" d="M 21,35 L 10,35 L 10,60"/>
        <path id="figure" fill="none" stroke="black" stroke-linecap="square"
              d="M 24 15 v 0.1 c 2.2 3.8 3.5 8.2 3.5 12.9 c 0 4.7 -1.3 9.1 -3.5 12.9 v 0.1 h 13.5 c 9.6 0 18 -5.2 22.5 -13 c -4.5 -7.8 -12.9 -13 -22.5 -13 h -13.5 z m -5 0.1 c 2.2 3.8 3.5 8.2 3.5 12.9 c 0 4.7 -1.3 9.1 -3.5 12.9"/>
        <path id="a" stroke="black" fill="none" d="M 60,28 L 75,28 L 75,20 L 90,20"/>
    </g>

    <g transform="translate(10,40)">
        <circle id="b2-dot" cx="10" cy="20" r="1.5" fill="black" stroke="none"/>
        <line id="b2" stroke="black" x1="-10" y1="20" x2="21" y2="20"/>
        <path id="b4-2" fill="none" stroke="black" d="M 21,35 L 10,35 L 10,60"/>
        <path id="figure" fill="none" stroke="black" stroke-linecap="square"
              d="M 24 15 v 0.1 c 2.2 3.8 3.5 8.2 3.5 12.9 c 0 4.7 -1.3 9.1 -3.5 12.9 v 0.1 h 13.5 c 9.6 0 18 -5.2 22.5 -13 c -4.5 -7.8 -12.9 -13 -22.5 -13 h -13.5 z m -5 0.1 c 2.2 3.8 3.5 8.2 3.5 12.9 c 0 4.7 -1.3 9.1 -3.5 12.9"/>
        <path id="b" stroke="black" fill="none" d="M 60,28 L 70,28 L 70,20 L 90,20"/>
    </g>

    <g transform="translate(10,80)">
        <circle id="b4-dot" cx="10" cy="20" r="1.5" fill="black" stroke="none"/>
        <line id="b4" stroke="black" x1="-10" y1="20" x2="21" y2="20"/>
        <path id="b8-2" fill="none" stroke="black" d="M 21,35 L 10,35 L 10,50"/>
        <path id="figure" fill="none" stroke="black" stroke-linecap="square"
              d="M 24 15 v 0.1 c 2.2 3.8 3.5 8.2 3.5 12.9 c 0 4.7 -1.3 9.1 -3.5 12.9 v 0.1 h 13.5 c 9.6 0 18 -5.2 22.5 -13 c -4.5 -7.8 -12.9 -13 -22.5 -13 h -13.5 z m -5 0.1 c 2.2 3.8 3.5 8.2 3.5 12.9 c 0 4.7 -1.3 9.1 -3.5 12.9"/>
        <path id="c" stroke="black" fill="none" d="M 60,28 L 70,28 L 70,20 L 90,20"/>
    </g>

    <circle id="b8-dot" cx="20" cy="140" r="1.5" fill="black" stroke="none"/>
    <line id="b8" stroke="black" x1="00" y1="140" x2="20" y2="140"/>
    <path id="d" fill="none" stroke="black" d="M 20,130 L 20,140 L 100,140"/>
</svg>